STARTFONT 2.3
FONT -FontForge-Fontdiner Swanky-Book-R-Normal--10-100-72-72-P-63-ISO10646-1
SIZE 10 72 72  2
FONTBOUNDINGBOX 14 15 -2 -5
COMMENT "Generated by fontforge, http://fontforge.sourceforge.net"
COMMENT "Copyright (c) 2010 by Font Diner, Inc. All rights reserved."
STARTPROPERTIES 40
FOUNDRY "FontForge"
FAMILY_NAME "Fontdiner Swanky"
WEIGHT_NAME "Book"
SLANT "R"
SETWIDTH_NAME "Normal"
ADD_STYLE_NAME ""
PIXEL_SIZE 10
POINT_SIZE 100
RESOLUTION_X 72
RESOLUTION_Y 72
SPACING "P"
AVERAGE_WIDTH 63
CHARSET_REGISTRY "ISO10646"
CHARSET_ENCODING "1"
FONTNAME_REGISTRY ""
CHARSET_COLLECTIONS "ISO10646-1"
BITS_PER_PIXEL 2
FONT_NAME "FontdinerSwanky-Regular"
FACE_NAME "Fontdiner Swanky Regular"
COPYRIGHT "Copyright (c) 2010 by Font Diner, Inc. All rights reserved."
FONT_VERSION "1.001"
FONT_ASCENT 8
FONT_DESCENT 2
UNDERLINE_POSITION -1
UNDERLINE_THICKNESS 1
X_HEIGHT 5
CAP_HEIGHT 5
RAW_ASCENT 799
RAW_DESCENT 200
NORM_SPACE 3
RELATIVE_WEIGHT 40
RELATIVE_SETWIDTH 50
SUPERSCRIPT_X 0
SUPERSCRIPT_Y 4
SUPERSCRIPT_SIZE 6
SUBSCRIPT_X 0
SUBSCRIPT_Y 1
SUBSCRIPT_SIZE 6
AVG_LOWERCASE_WIDTH 63
AVG_UPPERCASE_WIDTH 76
ENDPROPERTIES
CHARS 231
STARTCHAR space
ENCODING 32
SWIDTH 320 0
DWIDTH 3 0
BBX 1 1 0 0
BITMAP
00
ENDCHAR
STARTCHAR exclam
ENCODING 33
SWIDTH 305 0
DWIDTH 3 0
BBX 3 9 0 0
BITMAP
14
3C
38
38
74
74
70
50
B0
ENDCHAR
STARTCHAR quotedbl
ENCODING 34
SWIDTH 369 0
DWIDTH 4 0
BBX 4 3 0 4
BITMAP
99
AD
99
ENDCHAR
STARTCHAR numbersign
ENCODING 35
SWIDTH 702 0
DWIDTH 7 0
BBX 7 7 0 0
BITMAP
1850
6DA4
BEE8
1890
BEF8
69E4
1480
ENDCHAR
STARTCHAR dollar
ENCODING 36
SWIDTH 545 0
DWIDTH 5 0
BBX 6 10 0 -2
BITMAP
0400
0C00
7E80
A1C0
BD40
5BC0
91D0
AF80
0D00
0400
ENDCHAR
STARTCHAR percent
ENCODING 37
SWIDTH 657 0
DWIDTH 7 0
BBX 7 9 0 -1
BITMAP
1090
ACD0
ADC0
1340
0700
0A60
0DD8
18A4
1400
ENDCHAR
STARTCHAR ampersand
ENCODING 38
SWIDTH 668 0
DWIDTH 7 0
BBX 8 9 0 -1
BITMAP
0500
3680
3580
2E00
2F10
73B4
B5E5
7EB4
0080
ENDCHAR
STARTCHAR quotesingle
ENCODING 39
SWIDTH 177 0
DWIDTH 2 0
BBX 2 3 0 4
BITMAP
90
A0
90
ENDCHAR
STARTCHAR parenleft
ENCODING 40
SWIDTH 384 0
DWIDTH 4 0
BBX 4 10 0 -2
BITMAP
09
28
74
70
70
70
74
28
09
01
ENDCHAR
STARTCHAR parenright
ENCODING 41
SWIDTH 375 0
DWIDTH 4 0
BBX 4 10 0 -2
BITMAP
60
28
1C
1D
0D
1D
1C
38
60
40
ENDCHAR
STARTCHAR asterisk
ENCODING 42
SWIDTH 640 0
DWIDTH 6 0
BBX 7 6 0 0
BITMAP
39D0
1F80
FFF4
9F90
2AC0
1540
ENDCHAR
STARTCHAR plus
ENCODING 43
SWIDTH 607 0
DWIDTH 6 0
BBX 6 7 0 0
BITMAP
0500
0A00
5A00
FFF0
5A50
0A00
0500
ENDCHAR
STARTCHAR comma
ENCODING 44
SWIDTH 226 0
DWIDTH 2 0
BBX 2 3 0 -2
BITMAP
60
B0
60
ENDCHAR
STARTCHAR hyphen
ENCODING 45
SWIDTH 549 0
DWIDTH 6 0
BBX 5 3 0 2
BITMAP
1500
7FC0
1540
ENDCHAR
STARTCHAR period
ENCODING 46
SWIDTH 226 0
DWIDTH 2 0
BBX 2 2 0 -1
BITMAP
A0
A0
ENDCHAR
STARTCHAR slash
ENCODING 47
SWIDTH 600 0
DWIDTH 6 0
BBX 6 10 0 -1
BITMAP
0050
00F0
02D0
0380
0B40
1E00
2C00
7400
E000
4000
ENDCHAR
STARTCHAR zero
ENCODING 48
SWIDTH 740 0
DWIDTH 7 0
BBX 7 7 0 0
BITMAP
0140
2EF4
B43C
B02C
B02C
7878
1BD0
ENDCHAR
STARTCHAR one
ENCODING 49
SWIDTH 503 0
DWIDTH 5 0
BBX 5 8 0 -1
BITMAP
AE00
1E00
0E00
0E00
0E00
0E00
1E40
5540
ENDCHAR
STARTCHAR two
ENCODING 50
SWIDTH 638 0
DWIDTH 6 0
BBX 6 9 0 -1
BITMAP
4000
AFD0
70B0
50B0
02D0
1E10
7430
FFF0
0550
ENDCHAR
STARTCHAR three
ENCODING 51
SWIDTH 620 0
DWIDTH 6 0
BBX 6 8 0 -1
BITMAP
AF80
A1E0
40E0
0BD0
45E0
90F0
BAD0
4500
ENDCHAR
STARTCHAR four
ENCODING 52
SWIDTH 606 0
DWIDTH 6 0
BBX 6 9 0 -1
BITMAP
0040
0180
0780
0F80
3790
B7A0
57A0
0350
1A90
ENDCHAR
STARTCHAR five
ENCODING 53
SWIDTH 610 0
DWIDTH 6 0
BBX 6 9 0 -1
BITMAP
0050
AFE0
A410
BA40
66D0
00E0
91E0
AFC0
0500
ENDCHAR
STARTCHAR six
ENCODING 54
SWIDTH 619 0
DWIDTH 6 0
BBX 6 9 0 -1
BITMAP
0010
1F90
79A0
BA50
F9E0
E070
E070
75E0
1A40
ENDCHAR
STARTCHAR seven
ENCODING 55
SWIDTH 598 0
DWIDTH 6 0
BBX 7 8 0 -1
BITMAP
BFF4
61F0
51E0
02C0
0280
0340
0B40
1550
ENDCHAR
STARTCHAR eight
ENCODING 56
SWIDTH 642 0
DWIDTH 6 0
BBX 7 8 0 -1
BITMAP
2F90
74B0
70B0
3AE0
B9F0
F074
B4B4
2B90
ENDCHAR
STARTCHAR nine
ENCODING 57
SWIDTH 610 0
DWIDTH 6 0
BBX 6 8 0 -1
BITMAP
2F80
B0E0
E0B0
B5F0
2FF0
51E0
7FC0
1500
ENDCHAR
STARTCHAR colon
ENCODING 58
SWIDTH 223 0
DWIDTH 2 0
BBX 2 5 0 -1
BITMAP
50
F0
10
A0
A0
ENDCHAR
STARTCHAR semicolon
ENCODING 59
SWIDTH 228 0
DWIDTH 2 0
BBX 2 6 0 -2
BITMAP
50
F0
10
A0
B0
50
ENDCHAR
STARTCHAR less
ENCODING 60
SWIDTH 563 0
DWIDTH 6 0
BBX 6 7 0 0
BITMAP
0010
01E0
1BD0
BD00
2D00
0680
0050
ENDCHAR
STARTCHAR equal
ENCODING 61
SWIDTH 531 0
DWIDTH 5 0
BBX 6 4 0 1
BITMAP
A940
FFC0
5540
FFD0
ENDCHAR
STARTCHAR greater
ENCODING 62
SWIDTH 576 0
DWIDTH 6 0
BBX 6 7 0 0
BITMAP
4000
B400
7E40
07E0
0780
2900
5000
ENDCHAR
STARTCHAR question
ENCODING 63
SWIDTH 592 0
DWIDTH 6 0
BBX 6 10 0 -1
BITMAP
4000
AA40
81E0
00B0
11E0
2E80
2800
1000
B400
1000
ENDCHAR
STARTCHAR at
ENCODING 64
SWIDTH 792 0
DWIDTH 8 0
BBX 8 8 0 -1
BITMAP
06A0
395D
A6A7
D573
DAB3
AAA6
2928
0540
ENDCHAR
STARTCHAR A
ENCODING 65
SWIDTH 788 0
DWIDTH 8 0
BBX 10 9 -1 -2
BITMAP
069000
01F000
01F400
027C00
076D00
0A9F00
280B40
6A03D0
000A90
ENDCHAR
STARTCHAR B
ENCODING 66
SWIDTH 774 0
DWIDTH 8 0
BBX 9 8 -1 -1
BITMAP
6A9400
1F5B40
0E0380
0F6B40
0BAE00
0B0B40
0B5F40
2FA400
ENDCHAR
STARTCHAR C
ENCODING 67
SWIDTH 766 0
DWIDTH 8 0
BBX 8 8 0 -1
BITMAP
0AA5
3D6D
B408
B000
B400
7808
2E6D
0590
ENDCHAR
STARTCHAR D
ENCODING 68
SWIDTH 833 0
DWIDTH 8 0
BBX 10 8 -1 -1
BITMAP
6AA900
0B9B40
0782C0
0781D0
0341D0
034280
0BEE00
150000
ENDCHAR
STARTCHAR E
ENCODING 69
SWIDTH 781 0
DWIDTH 8 0
BBX 9 8 -1 -1
BITMAP
6BEB40
0B4240
075440
07B400
07B500
075200
1BAB00
155500
ENDCHAR
STARTCHAR F
ENCODING 70
SWIDTH 731 0
DWIDTH 7 0
BBX 7 8 0 -1
BITMAP
ABEC
2D0C
2D48
1EC0
1EC0
1D40
2D00
6A40
ENDCHAR
STARTCHAR G
ENCODING 71
SWIDTH 828 0
DWIDTH 8 0
BBX 9 8 0 -1
BITMAP
0AE900
3D6D00
B40500
B45540
B41E00
781D00
2EBA00
014000
ENDCHAR
STARTCHAR H
ENCODING 72
SWIDTH 797 0
DWIDTH 8 0
BBX 9 8 -1 -1
BITMAP
556F80
1F4B00
0E0B00
0E5B00
0FAF00
0E0B00
0E1F80
2A4000
ENDCHAR
STARTCHAR I
ENCODING 73
SWIDTH 445 0
DWIDTH 4 0
BBX 5 8 0 -1
BITMAP
BE40
2D00
1D00
1D00
1C00
1C00
1C00
6E40
ENDCHAR
STARTCHAR J
ENCODING 74
SWIDTH 718 0
DWIDTH 7 0
BBX 9 10 -1 -2
BITMAP
000040
05BE00
002C00
002C00
001D00
001D00
691D00
1C2C00
0AB400
004000
ENDCHAR
STARTCHAR K
ENCODING 75
SWIDTH 934 0
DWIDTH 9 0
BBX 11 9 0 -1
BITMAP
154000
6E1A90
2D1D00
1DA000
1EB000
1D3800
1D1E00
6E4740
001AA4
ENDCHAR
STARTCHAR L
ENCODING 76
SWIDTH 712 0
DWIDTH 7 0
BBX 7 8 0 0
BITMAP
AE40
1D00
1D00
1D00
1D04
1D08
1D5C
6AA8
ENDCHAR
STARTCHAR M
ENCODING 77
SWIDTH 1033 0
DWIDTH 10 0
BBX 11 9 0 -1
BITMAP
000050
7E03E0
2F4BC0
1F8FC0
1AE7C0
19F3C0
18A3C0
2D47E4
554000
ENDCHAR
STARTCHAR N
ENCODING 78
SWIDTH 840 0
DWIDTH 8 0
BBX 10 8 -1 0
BITMAP
001550
2F8B90
07D240
06F640
067E40
061F40
060B40
6F9240
ENDCHAR
STARTCHAR O
ENCODING 79
SWIDTH 808 0
DWIDTH 8 0
BBX 8 6 0 0
BITMAP
1FF4
782D
B00F
B00E
782D
1FF4
ENDCHAR
STARTCHAR P
ENCODING 80
SWIDTH 746 0
DWIDTH 7 0
BBX 9 8 -1 -1
BITMAP
555000
1BAE00
0B0340
0BAA00
0B4000
0B4000
1F9000
155000
ENDCHAR
STARTCHAR Q
ENCODING 81
SWIDTH 789 0
DWIDTH 8 0
BBX 9 10 0 -3
BITMAP
055000
2EB800
741D00
B00E00
B41D00
397C00
0AE000
00B400
00BE40
025000
ENDCHAR
STARTCHAR R
ENCODING 82
SWIDTH 826 0
DWIDTH 8 0
BBX 11 10 0 -3
BITMAP
554000
2EAD00
1C0A00
1EB800
1D7400
1D2C00
6E5E00
554BE4
000A00
001000
ENDCHAR
STARTCHAR S
ENCODING 83
SWIDTH 661 0
DWIDTH 7 0
BBX 7 8 0 -1
BITMAP
1544
B5B4
F420
7F90
06F4
5074
6AE0
4100
ENDCHAR
STARTCHAR T
ENCODING 84
SWIDTH 754 0
DWIDTH 8 0
BBX 7 8 0 -1
BITMAP
6AA8
679C
4388
0380
0380
0340
1BD0
0010
ENDCHAR
STARTCHAR U
ENCODING 85
SWIDTH 725 0
DWIDTH 7 0
BBX 8 8 0 -1
BITMAP
5469
7818
7818
7818
7818
3C24
1FA0
0100
ENDCHAR
STARTCHAR V
ENCODING 86
SWIDTH 786 0
DWIDTH 8 0
BBX 10 8 -1 -1
BITMAP
1A4540
5E0390
0B4600
078800
02D800
01F000
00A000
004000
ENDCHAR
STARTCHAR W
ENCODING 87
SWIDTH 1026 0
DWIDTH 10 0
BBX 12 8 -1 -1
BITMAP
154050
6E082D
0F1D24
076E30
03FBA0
02E3C0
01C280
004040
ENDCHAR
STARTCHAR X
ENCODING 88
SWIDTH 860 0
DWIDTH 9 0
BBX 10 7 -1 -1
BITMAP
1B8690
02DA00
00F800
01F800
076E00
6E0F80
001550
ENDCHAR
STARTCHAR Y
ENCODING 89
SWIDTH 848 0
DWIDTH 8 0
BBX 10 8 -1 -1
BITMAP
554000
1F4690
03C600
01E800
007000
007400
007400
01A900
ENDCHAR
STARTCHAR Z
ENCODING 90
SWIDTH 685 0
DWIDTH 7 0
BBX 7 6 0 0
BITMAP
BFF8
51F0
57D0
0F44
2E18
6AB4
ENDCHAR
STARTCHAR bracketleft
ENCODING 91
SWIDTH 380 0
DWIDTH 4 0
BBX 4 11 0 -2
BITMAP
10
7D
74
74
74
74
70
70
70
38
15
ENDCHAR
STARTCHAR backslash
ENCODING 92
SWIDTH 680 0
DWIDTH 7 0
BBX 7 10 0 -1
BITMAP
2000
B400
3C00
1E00
0B00
0780
02D0
00E0
0074
0020
ENDCHAR
STARTCHAR bracketright
ENCODING 93
SWIDTH 371 0
DWIDTH 4 0
BBX 4 11 0 -2
BITMAP
04
7D
1D
1D
1D
1D
1C
1C
1C
6C
54
ENDCHAR
STARTCHAR asciicircum
ENCODING 94
SWIDTH 671 0
DWIDTH 7 0
BBX 7 6 0 3
BITMAP
0100
0B00
1F80
2DD0
7870
B014
ENDCHAR
STARTCHAR underscore
ENCODING 95
SWIDTH 840 0
DWIDTH 8 0
BBX 9 2 0 -1
BITMAP
AAAA40
FFFF40
ENDCHAR
STARTCHAR grave
ENCODING 96
SWIDTH 707 0
DWIDTH 7 0
BBX 2 2 3 6
BITMAP
E0
60
ENDCHAR
STARTCHAR a
ENCODING 97
SWIDTH 572 0
DWIDTH 6 0
BBX 6 7 0 -1
BITMAP
1900
76C0
61D0
7AD0
B1C0
6BD0
0040
ENDCHAR
STARTCHAR b
ENCODING 98
SWIDTH 723 0
DWIDTH 7 0
BBX 8 10 -1 -2
BITMAP
1500
6F00
0F00
0E00
0A00
0BBD
0A0B
0A0B
0EA9
1540
ENDCHAR
STARTCHAR c
ENCODING 99
SWIDTH 589 0
DWIDTH 6 0
BBX 6 6 0 -1
BITMAP
1B80
74E0
B050
B010
3E90
0640
ENDCHAR
STARTCHAR d
ENCODING 100
SWIDTH 713 0
DWIDTH 7 0
BBX 8 10 0 -2
BITMAP
01A8
002C
0038
0038
1BB8
7474
B034
7434
1AF4
0025
ENDCHAR
STARTCHAR e
ENCODING 101
SWIDTH 593 0
DWIDTH 6 0
BBX 6 6 0 -1
BITMAP
0640
3AD0
B5A0
BA90
7940
0A40
ENDCHAR
STARTCHAR f
ENCODING 102
SWIDTH 507 0
DWIDTH 5 0
BBX 7 14 -1 -4
BITMAP
0190
0364
0728
0B00
0B00
2FE0
0740
0740
0340
0380
0280
5280
7340
2E00
ENDCHAR
STARTCHAR g
ENCODING 103
SWIDTH 606 0
DWIDTH 6 0
BBX 7 12 0 -5
BITMAP
0010
00F4
2AA4
70E0
A0A0
70D0
3E80
7A40
79F0
E074
A074
2E90
ENDCHAR
STARTCHAR h
ENCODING 104
SWIDTH 678 0
DWIDTH 7 0
BBX 8 10 -1 -1
BITMAP
1500
6E00
0E00
0E00
0E00
0FB8
0A0D
0A0D
1F4D
001A
ENDCHAR
STARTCHAR i
ENCODING 105
SWIDTH 393 0
DWIDTH 4 0
BBX 4 8 0 0
BITMAP
1C
2D
54
6D
1C
1C
1C
7E
ENDCHAR
STARTCHAR j
ENCODING 106
SWIDTH 385 0
DWIDTH 4 0
BBX 5 12 -1 -4
BITMAP
0400
1E00
0900
1A00
0B00
0740
0740
0340
0340
A340
6700
1400
ENDCHAR
STARTCHAR k
ENCODING 107
SWIDTH 749 0
DWIDTH 7 0
BBX 9 9 -1 -1
BITMAP
6F0000
0F1540
0F1D00
0B6400
0BF000
0B3400
0A1C00
1F8A40
001940
ENDCHAR
STARTCHAR l
ENCODING 108
SWIDTH 369 0
DWIDTH 4 0
BBX 5 10 -1 -1
BITMAP
6A00
0F00
0F00
0A00
0A00
0A00
0A00
0A00
0A00
1A40
ENDCHAR
STARTCHAR m
ENCODING 109
SWIDTH 990 0
DWIDTH 10 0
BBX 11 6 -1 0
BITMAP
051040
6FFFF0
0A1D34
0A1C34
1A5C78
005500
ENDCHAR
STARTCHAR n
ENCODING 110
SWIDTH 643 0
DWIDTH 6 0
BBX 8 6 -1 0
BITMAP
0510
6FFC
0A1C
0A1C
1A5C
0055
ENDCHAR
STARTCHAR o
ENCODING 111
SWIDTH 705 0
DWIDTH 7 0
BBX 7 5 0 0
BITMAP
1A90
B478
E02C
B038
2EE0
ENDCHAR
STARTCHAR p
ENCODING 112
SWIDTH 723 0
DWIDTH 7 0
BBX 8 9 -1 -3
BITMAP
5500
1FA8
0F0B
0A07
0B5A
0BA8
0A00
0B40
1540
ENDCHAR
STARTCHAR q
ENCODING 113
SWIDTH 682 0
DWIDTH 7 0
BBX 8 9 0 -3
BITMAP
0069
2EF4
A0B0
E0B0
75B0
19B0
00A0
01F4
0004
ENDCHAR
STARTCHAR r
ENCODING 114
SWIDTH 595 0
DWIDTH 6 0
BBX 6 6 0 0
BITMAP
6DA0
6EB0
1C00
1C00
1D00
7E40
ENDCHAR
STARTCHAR s
ENCODING 115
SWIDTH 533 0
DWIDTH 5 0
BBX 6 6 0 0
BITMAP
2A40
A1C0
B940
1FC0
91D0
AF80
ENDCHAR
STARTCHAR t
ENCODING 116
SWIDTH 422 0
DWIDTH 4 0
BBX 5 10 0 -1
BITMAP
0800
1800
B900
7A40
3400
7400
7400
7500
3E00
0400
ENDCHAR
STARTCHAR u
ENCODING 117
SWIDTH 614 0
DWIDTH 6 0
BBX 8 6 -1 -1
BITMAP
6D68
1C28
1C28
1C28
0BF9
0014
ENDCHAR
STARTCHAR v
ENCODING 118
SWIDTH 639 0
DWIDTH 6 0
BBX 8 7 -1 -1
BITMAP
0500
6D69
0E28
0730
03E0
01C0
0040
ENDCHAR
STARTCHAR w
ENCODING 119
SWIDTH 805 0
DWIDTH 8 0
BBX 10 6 -1 0
BITMAP
550150
2D2280
0E7700
07FE00
039D00
010800
ENDCHAR
STARTCHAR x
ENCODING 120
SWIDTH 717 0
DWIDTH 7 0
BBX 9 7 -1 -1
BITMAP
054000
5F6A40
07A400
01E000
07B400
1A6E40
005400
ENDCHAR
STARTCHAR y
ENCODING 121
SWIDTH 655 0
DWIDTH 7 0
BBX 7 10 0 -5
BITMAP
A5A0
74B4
B470
79B0
2AB0
00B0
00B0
B0E0
76D0
0500
ENDCHAR
STARTCHAR z
ENCODING 122
SWIDTH 549 0
DWIDTH 6 0
BBX 6 6 0 0
BITMAP
0150
ABD0
9780
4F00
2D50
BFD0
ENDCHAR
STARTCHAR braceleft
ENCODING 123
SWIDTH 708 0
DWIDTH 7 0
BBX 5 11 1 -2
BITMAP
0400
2E40
1C00
1C00
1C00
BC00
1C00
1C00
1C00
1E00
0540
ENDCHAR
STARTCHAR bar
ENCODING 124
SWIDTH 304 0
DWIDTH 3 0
BBX 3 10 0 -1
BITMAP
10
74
74
74
74
74
74
74
74
20
ENDCHAR
STARTCHAR braceright
ENCODING 125
SWIDTH 517 0
DWIDTH 5 0
BBX 5 11 0 -2
BITMAP
0400
6E00
0A00
0A00
0A00
0B80
0A00
0A00
0A00
1E00
1400
ENDCHAR
STARTCHAR asciitilde
ENCODING 126
SWIDTH 466 0
DWIDTH 5 0
BBX 5 2 0 2
BITMAP
FA80
9A40
ENDCHAR
STARTCHAR uni00A0
ENCODING 160
SWIDTH 320 0
DWIDTH 3 0
BBX 1 1 0 0
BITMAP
00
ENDCHAR
STARTCHAR exclamdown
ENCODING 161
SWIDTH 305 0
DWIDTH 3 0
BBX 3 9 0 -3
BITMAP
14
2C
14
34
34
74
74
B4
B4
ENDCHAR
STARTCHAR cent
ENCODING 162
SWIDTH 417 0
DWIDTH 4 0
BBX 4 8 0 -1
BITMAP
1C
2D
A3
D1
D0
BA
1C
1C
ENDCHAR
STARTCHAR sterling
ENCODING 163
SWIDTH 658 0
DWIDTH 7 0
BBX 7 8 0 -1
BITMAP
0644
2DB4
7920
FE90
AE44
6E48
2EB8
1554
ENDCHAR
STARTCHAR currency
ENCODING 164
SWIDTH 358 0
DWIDTH 4 0
BBX 4 3 0 2
BITMAP
BD
68
A9
ENDCHAR
STARTCHAR yen
ENCODING 165
SWIDTH 796 0
DWIDTH 8 0
BBX 9 7 -1 0
BITMAP
550000
1E1E40
075800
01E000
06E400
06E400
06E400
ENDCHAR
STARTCHAR brokenbar
ENCODING 166
SWIDTH 304 0
DWIDTH 3 0
BBX 3 10 0 -1
BITMAP
10
74
74
74
10
00
74
74
74
20
ENDCHAR
STARTCHAR section
ENCODING 167
SWIDTH 646 0
DWIDTH 6 0
BBX 6 12 0 -3
BITMAP
1A10
75A0
B020
7E40
3FE0
A1B0
79B0
2FD0
06F0
60B0
6EE0
0100
ENDCHAR
STARTCHAR dieresis
ENCODING 168
SWIDTH 708 0
DWIDTH 7 0
BBX 3 2 2 8
BITMAP
44
98
ENDCHAR
STARTCHAR copyright
ENCODING 169
SWIDTH 700 0
DWIDTH 7 0
BBX 7 7 0 0
BITMAP
1A90
7574
D89C
C80C
9A58
7560
0640
ENDCHAR
STARTCHAR ordfeminine
ENCODING 170
SWIDTH 399 0
DWIDTH 4 0
BBX 4 4 0 4
BITMAP
68
99
ED
AE
ENDCHAR
STARTCHAR guillemotleft
ENCODING 171
SWIDTH 424 0
DWIDTH 4 0
BBX 4 5 0 0
BITMAP
12
76
AD
66
22
ENDCHAR
STARTCHAR logicalnot
ENCODING 172
SWIDTH 541 0
DWIDTH 5 0
BBX 6 5 0 0
BITMAP
9550
BFD0
40C0
0080
0050
ENDCHAR
STARTCHAR sfthyphen
ENCODING 173
SWIDTH 530 0
DWIDTH 5 0
BBX 6 3 0 2
BITMAP
5500
FFD0
5540
ENDCHAR
STARTCHAR registered
ENCODING 174
SWIDTH 700 0
DWIDTH 7 0
BBX 7 7 0 0
BITMAP
0680
7574
DBEC
C60C
9658
7574
0640
ENDCHAR
STARTCHAR macron
ENCODING 175
SWIDTH 705 0
DWIDTH 7 0
BBX 4 2 2 7
BITMAP
68
69
ENDCHAR
STARTCHAR degree
ENCODING 176
SWIDTH 364 0
DWIDTH 4 0
BBX 3 3 0 4
BITMAP
78
6C
14
ENDCHAR
STARTCHAR plusminus
ENCODING 177
SWIDTH 607 0
DWIDTH 6 0
BBX 6 7 0 0
BITMAP
0500
0A00
BFE0
6F90
0A00
6A90
BFA0
ENDCHAR
STARTCHAR twosuperior
ENCODING 178
SWIDTH 440 0
DWIDTH 4 0
BBX 5 6 0 3
BITMAP
6900
6700
4700
6940
FB00
5500
ENDCHAR
STARTCHAR threesuperior
ENCODING 179
SWIDTH 442 0
DWIDTH 4 0
BBX 4 6 0 3
BITMAP
54
AB
57
5B
A7
59
ENDCHAR
STARTCHAR acute
ENCODING 180
SWIDTH 694 0
DWIDTH 7 0
BBX 2 3 3 7
BITMAP
50
D0
40
ENDCHAR
STARTCHAR mu
ENCODING 181
SWIDTH 1000 0
DWIDTH 10 0
BBX 7 8 0 -3
BITMAP
6C68
1C28
1C28
1C34
1FF8
1C14
1C00
1800
ENDCHAR
STARTCHAR paragraph
ENCODING 182
SWIDTH 782 0
DWIDTH 8 0
BBX 8 8 0 -1
BITMAP
15A9
B7B4
D370
6BB0
0370
0370
07F9
1540
ENDCHAR
STARTCHAR periodcentered
ENCODING 183
SWIDTH 226 0
DWIDTH 2 0
BBX 2 2 0 3
BITMAP
60
B0
ENDCHAR
STARTCHAR cedilla
ENCODING 184
SWIDTH 780 0
DWIDTH 8 0
BBX 2 3 3 -2
BITMAP
D0
70
A0
ENDCHAR
STARTCHAR onesuperior
ENCODING 185
SWIDTH 390 0
DWIDTH 4 0
BBX 4 6 0 3
BITMAP
18
6C
1C
1C
1C
15
ENDCHAR
STARTCHAR ordmasculine
ENCODING 186
SWIDTH 449 0
DWIDTH 5 0
BBX 5 4 0 4
BITMAP
6900
D340
D240
6900
ENDCHAR
STARTCHAR guillemotright
ENCODING 187
SWIDTH 415 0
DWIDTH 4 0
BBX 4 5 0 0
BITMAP
88
A9
77
6A
88
ENDCHAR
STARTCHAR onequarter
ENCODING 188
SWIDTH 918 0
DWIDTH 9 0
BBX 9 10 0 -1
BITMAP
180200
6C0B00
1C0D00
1C2800
1C7100
15D700
019F00
037B80
0A5780
1C1B40
ENDCHAR
STARTCHAR onehalf
ENCODING 189
SWIDTH 1007 0
DWIDTH 10 0
BBX 10 11 0 -2
BITMAP
180200
6C0B00
1C0D00
1C2800
1C7000
15D680
0189B0
0344A0
0A0760
1C0FA0
000550
ENDCHAR
STARTCHAR threequarters
ENCODING 190
SWIDTH 936 0
DWIDTH 9 0
BBX 9 10 0 -1
BITMAP
540200
AB0700
570E00
5B2C00
A77540
59A340
01CB40
036B80
061780
0C0B80
ENDCHAR
STARTCHAR questiondown
ENCODING 191
SWIDTH 568 0
DWIDTH 6 0
BBX 6 9 0 -3
BITMAP
0190
01D0
0140
0780
7A40
E000
E010
7990
0590
ENDCHAR
STARTCHAR Agrave
ENCODING 192
SWIDTH 788 0
DWIDTH 8 0
BBX 10 12 -1 -2
BITMAP
01C000
009000
000000
069000
01F000
01F400
027C00
076D00
0A9F00
280B40
6A03D0
000A90
ENDCHAR
STARTCHAR Aacute
ENCODING 193
SWIDTH 788 0
DWIDTH 8 0
BBX 10 12 -1 -2
BITMAP
005000
00A000
005000
069000
01F000
01F400
027C00
076D00
0A9F00
280B40
6A03D0
000A90
ENDCHAR
STARTCHAR Acircumflex
ENCODING 194
SWIDTH 788 0
DWIDTH 8 0
BBX 10 11 -1 -2
BITMAP
00A000
02A400
069000
01F000
01F400
027C00
076D00
0A9F00
280B40
6A03D0
000A90
ENDCHAR
STARTCHAR Atilde
ENCODING 195
SWIDTH 788 0
DWIDTH 8 0
BBX 10 11 -1 -2
BITMAP
019400
016400
069000
01F000
01F400
027C00
076D00
0A9F00
280B40
6A03D0
000A90
ENDCHAR
STARTCHAR Adieresis
ENCODING 196
SWIDTH 788 0
DWIDTH 8 0
BBX 10 11 -1 -2
BITMAP
005000
015400
069000
01F000
01F400
027C00
076D00
0A9F00
280B40
6A03D0
000A90
ENDCHAR
STARTCHAR Aring
ENCODING 197
SWIDTH 788 0
DWIDTH 8 0
BBX 10 11 -1 -2
BITMAP
005000
00A000
06E000
01F000
01F400
027C00
076D00
0A9F00
280B40
6A03D0
000A90
ENDCHAR
STARTCHAR AE
ENCODING 198
SWIDTH 1019 0
DWIDTH 10 0
BBX 12 9 -2 -1
BITMAP
000005
02FFEA
007F02
009B11
018BA0
03AFA1
0A5B12
2C1FAA
595554
ENDCHAR
STARTCHAR Ccedilla
ENCODING 199
SWIDTH 766 0
DWIDTH 8 0
BBX 8 11 0 -4
BITMAP
0AA5
3D6D
B408
B000
B400
7808
2E6D
0790
0280
01C0
0140
ENDCHAR
STARTCHAR Egrave
ENCODING 200
SWIDTH 781 0
DWIDTH 8 0
BBX 9 11 -1 -1
BITMAP
00D000
00A000
000000
6BEB40
0B4240
075440
07B400
07B500
075200
1BAB00
155500
ENDCHAR
STARTCHAR Eacute
ENCODING 201
SWIDTH 781 0
DWIDTH 8 0
BBX 9 11 -1 -1
BITMAP
002000
007000
005000
6BEB40
0B4240
075440
07B400
07B500
075200
1BAB00
155500
ENDCHAR
STARTCHAR Ecircumflex
ENCODING 202
SWIDTH 781 0
DWIDTH 8 0
BBX 9 11 -1 -1
BITMAP
00E000
02A400
000000
6BEB40
0B4240
075440
07B400
07B500
075200
1BAB00
155500
ENDCHAR
STARTCHAR Edieresis
ENCODING 203
SWIDTH 781 0
DWIDTH 8 0
BBX 9 11 -1 -1
BITMAP
005000
015400
000000
6BEB40
0B4240
075440
07B400
07B500
075200
1BAB00
155500
ENDCHAR
STARTCHAR Igrave
ENCODING 204
SWIDTH 445 0
DWIDTH 4 0
BBX 5 11 0 -1
BITMAP
2800
1C00
0000
BE40
2D00
1D00
1D00
1C00
1C00
1C00
6E40
ENDCHAR
STARTCHAR Iacute
ENCODING 205
SWIDTH 445 0
DWIDTH 4 0
BBX 5 11 0 -1
BITMAP
0500
0D00
0400
BE40
2D00
1D00
1D00
1C00
1C00
1C00
6E40
ENDCHAR
STARTCHAR Icircumflex
ENCODING 206
SWIDTH 445 0
DWIDTH 4 0
BBX 5 11 0 -1
BITMAP
1C00
2600
0000
BE40
2D00
1D00
1D00
1C00
1C00
1C00
6E40
ENDCHAR
STARTCHAR Idieresis
ENCODING 207
SWIDTH 445 0
DWIDTH 4 0
BBX 5 10 0 -1
BITMAP
1100
2600
BE40
2D00
1D00
1D00
1C00
1C00
1C00
6E40
ENDCHAR
STARTCHAR Eth
ENCODING 208
SWIDTH 1000 0
DWIDTH 10 0
BBX 10 8 0 -1
BITMAP
6AA900
07D780
0381D0
2BE5E0
1791D0
0382C0
07EE40
150000
ENDCHAR
STARTCHAR Ntilde
ENCODING 209
SWIDTH 840 0
DWIDTH 8 0
BBX 10 10 -1 0
BITMAP
009400
016800
001550
2F8B90
07D240
06F640
067E40
061F40
060B40
6F9240
ENDCHAR
STARTCHAR Ograve
ENCODING 210
SWIDTH 808 0
DWIDTH 8 0
BBX 8 9 0 0
BITMAP
0280
01C0
0000
1FF4
782D
B00F
B00E
782D
1FF4
ENDCHAR
STARTCHAR Oacute
ENCODING 211
SWIDTH 808 0
DWIDTH 8 0
BBX 8 9 0 0
BITMAP
0080
01C0
0140
1FF4
782D
B00F
B00E
782D
1FF4
ENDCHAR
STARTCHAR Ocircumflex
ENCODING 212
SWIDTH 808 0
DWIDTH 8 0
BBX 8 9 0 0
BITMAP
0280
06A0
0000
1FF4
782D
B00F
B00E
782D
1FF4
ENDCHAR
STARTCHAR Otilde
ENCODING 213
SWIDTH 808 0
DWIDTH 8 0
BBX 8 9 0 0
BITMAP
0250
05A0
0000
1FF4
782D
B00F
B00E
782D
1FF4
ENDCHAR
STARTCHAR Odieresis
ENCODING 214
SWIDTH 808 0
DWIDTH 8 0
BBX 8 9 0 0
BITMAP
0140
0550
0000
1FF4
782D
B00F
B00E
782D
1FF4
ENDCHAR
STARTCHAR multiply
ENCODING 215
SWIDTH 556 0
DWIDTH 6 0
BBX 6 5 0 1
BITMAP
6180
7BD0
2F40
3F80
A1D0
ENDCHAR
STARTCHAR Oslash
ENCODING 216
SWIDTH 808 0
DWIDTH 8 0
BBX 8 8 0 -1
BITMAP
0028
1FF8
78BD
B1DE
B78E
7F2D
1FF4
1800
ENDCHAR
STARTCHAR Ugrave
ENCODING 217
SWIDTH 725 0
DWIDTH 7 0
BBX 8 10 0 -1
BITMAP
0740
0240
5569
7818
7818
7818
7818
3C24
1FA0
0100
ENDCHAR
STARTCHAR Uacute
ENCODING 218
SWIDTH 725 0
DWIDTH 7 0
BBX 8 11 0 -1
BITMAP
0140
0280
0100
5469
7818
7818
7818
7818
3C24
1FA0
0100
ENDCHAR
STARTCHAR Ucircumflex
ENCODING 219
SWIDTH 725 0
DWIDTH 7 0
BBX 8 10 0 -1
BITMAP
0380
0A90
5469
7818
7818
7818
7818
3C24
1FA0
0100
ENDCHAR
STARTCHAR Udieresis
ENCODING 220
SWIDTH 725 0
DWIDTH 7 0
BBX 8 10 0 -1
BITMAP
0140
0550
5469
7818
7818
7818
7818
3C24
1FA0
0100
ENDCHAR
STARTCHAR Yacute
ENCODING 221
SWIDTH 848 0
DWIDTH 8 0
BBX 10 11 -1 -1
BITMAP
001400
002800
001400
554000
1F4690
03C600
01E800
007000
007400
007400
01A900
ENDCHAR
STARTCHAR Thorn
ENCODING 222
SWIDTH 745 0
DWIDTH 7 0
BBX 9 8 -1 -1
BITMAP
555000
1B4000
0BF900
0B0340
0B5A00
0B9400
1F9000
155000
ENDCHAR
STARTCHAR germandbls
ENCODING 223
SWIDTH 986 0
DWIDTH 10 0
BBX 11 14 -1 -4
BITMAP
001000
01ED00
034700
070340
070700
2F0A00
075D00
075E00
034BE0
0385BC
028E68
629590
734000
2E0000
ENDCHAR
STARTCHAR agrave
ENCODING 224
SWIDTH 572 0
DWIDTH 6 0
BBX 6 9 0 -1
BITMAP
0740
0240
1A00
76C0
61D0
7AD0
B1C0
6BD0
0040
ENDCHAR
STARTCHAR aacute
ENCODING 225
SWIDTH 572 0
DWIDTH 6 0
BBX 6 10 0 -1
BITMAP
0140
0340
0100
1900
76C0
61D0
7AD0
B1C0
6BD0
0040
ENDCHAR
STARTCHAR acircumflex
ENCODING 226
SWIDTH 572 0
DWIDTH 6 0
BBX 6 10 0 -1
BITMAP
0700
1A80
0000
1900
76C0
61D0
7AD0
B1C0
6BD0
0040
ENDCHAR
STARTCHAR atilde
ENCODING 227
SWIDTH 572 0
DWIDTH 6 0
BBX 6 9 0 -1
BITMAP
0A40
0A80
1900
76C0
61D0
7AD0
B1C0
6BD0
0040
ENDCHAR
STARTCHAR adieresis
ENCODING 228
SWIDTH 572 0
DWIDTH 6 0
BBX 6 9 0 -1
BITMAP
0500
1540
1900
76C0
61D0
7AD0
B1C0
6BD0
0040
ENDCHAR
STARTCHAR aring
ENCODING 229
SWIDTH 572 0
DWIDTH 6 0
BBX 6 9 0 -1
BITMAP
0100
0A40
1B40
76C0
61D0
7AD0
B1C0
6BD0
0040
ENDCHAR
STARTCHAR ae
ENCODING 230
SWIDTH 1022 0
DWIDTH 10 0
BBX 10 7 0 -1
BITMAP
190000
76AED0
61F4B0
7AFAA0
E2F950
6BD640
010000
ENDCHAR
STARTCHAR ccedilla
ENCODING 231
SWIDTH 589 0
DWIDTH 6 0
BBX 6 9 0 -4
BITMAP
1B80
74E0
B050
B010
7E90
0A40
0A00
0640
0500
ENDCHAR
STARTCHAR egrave
ENCODING 232
SWIDTH 593 0
DWIDTH 6 0
BBX 6 9 0 -1
BITMAP
0700
0240
0000
0640
3AD0
B5A0
BA90
7940
0A40
ENDCHAR
STARTCHAR eacute
ENCODING 233
SWIDTH 593 0
DWIDTH 6 0
BBX 6 9 0 -1
BITMAP
0200
0300
0100
0640
3AD0
B5A0
BA90
7940
0A40
ENDCHAR
STARTCHAR ecircumflex
ENCODING 234
SWIDTH 593 0
DWIDTH 6 0
BBX 6 9 0 -1
BITMAP
0700
1A80
0000
0640
3AD0
B5A0
BA90
7940
0A40
ENDCHAR
STARTCHAR edieresis
ENCODING 235
SWIDTH 593 0
DWIDTH 6 0
BBX 6 8 0 -1
BITMAP
0440
0980
0640
3AD0
B5A0
BA90
7940
0A40
ENDCHAR
STARTCHAR igrave
ENCODING 236
SWIDTH 393 0
DWIDTH 4 0
BBX 4 8 0 0
BITMAP
28
1C
54
6D
1C
1C
1C
7E
ENDCHAR
STARTCHAR iacute
ENCODING 237
SWIDTH 393 0
DWIDTH 4 0
BBX 4 9 0 0
BITMAP
05
0D
04
54
6D
1C
1C
1C
7E
ENDCHAR
STARTCHAR icircumflex
ENCODING 238
SWIDTH 393 0
DWIDTH 4 0
BBX 4 8 0 0
BITMAP
1C
6A
54
6D
1C
1C
1C
7E
ENDCHAR
STARTCHAR idieresis
ENCODING 239
SWIDTH 393 0
DWIDTH 4 0
BBX 4 8 0 0
BITMAP
11
26
54
6D
1C
1C
1C
7E
ENDCHAR
STARTCHAR eth
ENCODING 240
SWIDTH 672 0
DWIDTH 7 0
BBX 7 9 0 -1
BITMAP
1460
03D0
1ED0
04B0
2AF4
B078
E038
A074
2A90
ENDCHAR
STARTCHAR ntilde
ENCODING 241
SWIDTH 643 0
DWIDTH 6 0
BBX 8 8 -1 0
BITMAP
0290
02A0
0510
6FFC
0A1C
0A1C
1A5C
0055
ENDCHAR
STARTCHAR ograve
ENCODING 242
SWIDTH 705 0
DWIDTH 7 0
BBX 7 8 0 0
BITMAP
0340
0280
0000
1A90
B478
E02C
B038
2EE0
ENDCHAR
STARTCHAR oacute
ENCODING 243
SWIDTH 705 0
DWIDTH 7 0
BBX 7 8 0 0
BITMAP
0140
0340
0100
1A90
B478
E02C
B038
2EE0
ENDCHAR
STARTCHAR ocircumflex
ENCODING 244
SWIDTH 705 0
DWIDTH 7 0
BBX 7 8 0 0
BITMAP
0340
0A90
0000
1A90
B478
E02C
B038
2EE0
ENDCHAR
STARTCHAR otilde
ENCODING 245
SWIDTH 705 0
DWIDTH 7 0
BBX 7 8 0 0
BITMAP
0650
0680
0000
1A90
B478
E02C
B038
2EE0
ENDCHAR
STARTCHAR odieresis
ENCODING 246
SWIDTH 705 0
DWIDTH 7 0
BBX 7 7 0 0
BITMAP
0440
0580
1A90
B478
E02C
B038
2EE0
ENDCHAR
STARTCHAR divide
ENCODING 247
SWIDTH 504 0
DWIDTH 5 0
BBX 5 6 0 0
BITMAP
0900
1E00
A540
BA80
0900
1D00
ENDCHAR
STARTCHAR oslash
ENCODING 248
SWIDTH 705 0
DWIDTH 7 0
BBX 7 7 0 -1
BITMAP
0060
1AE0
B5F8
E36C
BA38
2FE0
2800
ENDCHAR
STARTCHAR ugrave
ENCODING 249
SWIDTH 614 0
DWIDTH 6 0
BBX 8 9 -1 -1
BITMAP
0380
0180
0000
6D68
1C28
1C28
1C28
0BF9
0014
ENDCHAR
STARTCHAR uacute
ENCODING 250
SWIDTH 614 0
DWIDTH 6 0
BBX 8 9 -1 -1
BITMAP
0080
01C0
0140
6D68
1C28
1C28
1C28
0BF9
0014
ENDCHAR
STARTCHAR ucircumflex
ENCODING 251
SWIDTH 614 0
DWIDTH 6 0
BBX 8 9 -1 -1
BITMAP
02C0
06A0
0000
6D68
1C28
1C28
1C28
0BF9
0014
ENDCHAR
STARTCHAR udieresis
ENCODING 252
SWIDTH 614 0
DWIDTH 6 0
BBX 8 9 -1 -1
BITMAP
0140
0550
0000
6D68
1C28
1C28
1C28
0BF9
0014
ENDCHAR
STARTCHAR yacute
ENCODING 253
SWIDTH 655 0
DWIDTH 7 0
BBX 7 14 0 -5
BITMAP
0200
0700
0500
0000
A5A0
74B4
B470
79B0
2AB0
00B0
00B0
B0E0
76D0
0500
ENDCHAR
STARTCHAR thorn
ENCODING 254
SWIDTH 734 0
DWIDTH 7 0
BBX 9 11 -1 -4
BITMAP
6F0000
0B0000
0B0000
0B5000
0BAE00
070740
070740
07AE00
075400
070000
1B9000
ENDCHAR
STARTCHAR ydieresis
ENCODING 255
SWIDTH 655 0
DWIDTH 7 0
BBX 7 13 0 -5
BITMAP
0500
1540
0000
A5A0
74B4
B470
79B0
2AB0
00B0
00B0
B0E0
76D0
0500
ENDCHAR
STARTCHAR dotlessi
ENCODING 305
SWIDTH 393 0
DWIDTH 4 0
BBX 4 6 0 0
BITMAP
54
6D
1C
1C
1C
7E
ENDCHAR
STARTCHAR Lslash
ENCODING 321
SWIDTH 713 0
DWIDTH 7 0
BBX 7 8 0 0
BITMAP
AE40
1D00
1E40
2F80
BD04
5D08
1D5C
6AA8
ENDCHAR
STARTCHAR lslash
ENCODING 322
SWIDTH 365 0
DWIDTH 4 0
BBX 5 10 -1 -1
BITMAP
6900
0E00
0E00
0F80
1F80
7E00
0A00
0A00
0A00
1A40
ENDCHAR
STARTCHAR OE
ENCODING 338
SWIDTH 1195 0
DWIDTH 12 0
BBX 12 8 0 -1
BITMAP
006FEE
1A5E05
75BE11
E03FA0
A03F91
75AE15
06AFAD
005554
ENDCHAR
STARTCHAR oe
ENCODING 339
SWIDTH 1087 0
DWIDTH 11 0
BBX 11 6 0 -1
BITMAP
164140
75AEB0
E07978
A07EA4
2AAD50
000680
ENDCHAR
STARTCHAR Scaron
ENCODING 352
SWIDTH 661 0
DWIDTH 7 0
BBX 7 11 0 -1
BITMAP
0E80
0700
0000
1544
B5B4
F420
7F90
06F4
5074
6AE0
4100
ENDCHAR
STARTCHAR scaron
ENCODING 353
SWIDTH 533 0
DWIDTH 5 0
BBX 6 9 0 0
BITMAP
2A40
0A00
0000
2A40
A1C0
B940
1FC0
91D0
AF80
ENDCHAR
STARTCHAR Ydieresis
ENCODING 376
SWIDTH 848 0
DWIDTH 8 0
BBX 10 10 -1 -1
BITMAP
004400
009800
554000
1F4690
03C600
01E800
007000
007400
007400
01A900
ENDCHAR
STARTCHAR Zcaron
ENCODING 381
SWIDTH 685 0
DWIDTH 7 0
BBX 7 9 0 0
BITMAP
0AC0
0340
0000
BFF8
51F0
57D0
0F44
2E18
6AB4
ENDCHAR
STARTCHAR zcaron
ENCODING 382
SWIDTH 549 0
DWIDTH 6 0
BBX 6 8 0 0
BITMAP
1A40
0A00
0550
ABD0
9780
4F00
2D50
BFD0
ENDCHAR
STARTCHAR circumflex
ENCODING 710
SWIDTH 714 0
DWIDTH 7 0
BBX 4 2 2 7
BITMAP
28
A9
ENDCHAR
STARTCHAR caron
ENCODING 711
SWIDTH 714 0
DWIDTH 7 0
BBX 4 2 2 7
BITMAP
69
28
ENDCHAR
STARTCHAR breve
ENCODING 728
SWIDTH 715 0
DWIDTH 7 0
BBX 4 2 2 7
BITMAP
69
14
ENDCHAR
STARTCHAR dotaccent
ENCODING 729
SWIDTH 708 0
DWIDTH 7 0
BBX 1 2 3 8
BITMAP
40
80
ENDCHAR
STARTCHAR ring
ENCODING 730
SWIDTH 704 0
DWIDTH 7 0
BBX 2 2 3 7
BITMAP
A0
A0
ENDCHAR
STARTCHAR ogonek
ENCODING 731
SWIDTH 988 0
DWIDTH 10 0
BBX 4 3 3 -2
BITMAP
90
B9
10
ENDCHAR
STARTCHAR tilde
ENCODING 732
SWIDTH 707 0
DWIDTH 7 0
BBX 4 2 2 7
BITMAP
65
69
ENDCHAR
STARTCHAR hungarumlaut
ENCODING 733
SWIDTH 671 0
DWIDTH 7 0
BBX 3 3 2 7
BITMAP
58
AC
54
ENDCHAR
STARTCHAR endash
ENCODING 8211
SWIDTH 576 0
DWIDTH 6 0
BBX 5 2 0 3
BITMAP
1540
7FC0
ENDCHAR
STARTCHAR emdash
ENCODING 8212
SWIDTH 993 0
DWIDTH 10 0
BBX 10 2 0 3
BITMAP
155540
7FFFD0
ENDCHAR
STARTCHAR quoteleft
ENCODING 8216
SWIDTH 261 0
DWIDTH 3 0
BBX 3 3 0 4
BITMAP
34
B0
60
ENDCHAR
STARTCHAR quoteright
ENCODING 8217
SWIDTH 301 0
DWIDTH 3 0
BBX 3 3 0 4
BITMAP
34
70
50
ENDCHAR
STARTCHAR quotesinglbase
ENCODING 8218
SWIDTH 332 0
DWIDTH 3 0
BBX 3 3 0 -1
BITMAP
34
70
50
ENDCHAR
STARTCHAR quotedblleft
ENCODING 8220
SWIDTH 477 0
DWIDTH 5 0
BBX 5 3 0 4
BITMAP
3740
BB40
6600
ENDCHAR
STARTCHAR quotedblright
ENCODING 8221
SWIDTH 477 0
DWIDTH 5 0
BBX 5 3 0 4
BITMAP
7740
BB00
5500
ENDCHAR
STARTCHAR quotedblbase
ENCODING 8222
SWIDTH 477 0
DWIDTH 5 0
BBX 5 3 0 -1
BITMAP
7740
BB00
5500
ENDCHAR
STARTCHAR dagger
ENCODING 8224
SWIDTH 487 0
DWIDTH 5 0
BBX 5 12 0 -3
BITMAP
0400
1D00
1D00
BF40
6E40
1D00
1D00
0D00
0D00
0C00
0C00
0C00
ENDCHAR
STARTCHAR daggerdbl
ENCODING 8225
SWIDTH 497 0
DWIDTH 5 0
BBX 5 12 0 -3
BITMAP
0400
1D00
1D00
BF40
6E40
6E40
BF80
0D00
0D00
0D00
0C00
0C00
ENDCHAR
STARTCHAR bullet
ENCODING 8226
SWIDTH 275 0
DWIDTH 3 0
BBX 3 3 0 2
BITMAP
B4
F8
60
ENDCHAR
STARTCHAR ellipsis
ENCODING 8230
SWIDTH 787 0
DWIDTH 8 0
BBX 8 2 0 -1
BITMAP
A289
A289
ENDCHAR
STARTCHAR perthousand
ENCODING 8240
SWIDTH 888 0
DWIDTH 9 0
BBX 10 9 0 -1
BITMAP
109000
EDD000
EEC000
134000
070000
0A6640
1DEED0
28FBC0
100000
ENDCHAR
STARTCHAR guilsinglleft
ENCODING 8249
SWIDTH 234 0
DWIDTH 2 0
BBX 2 5 0 0
BITMAP
10
70
A0
60
20
ENDCHAR
STARTCHAR guilsinglright
ENCODING 8250
SWIDTH 223 0
DWIDTH 2 0
BBX 2 5 0 0
BITMAP
80
A0
70
60
80
ENDCHAR
STARTCHAR fraction
ENCODING 8260
SWIDTH 600 0
DWIDTH 6 0
BBX 6 9 0 -1
BITMAP
00B0
01E0
02C0
0780
0F00
2D00
7800
B000
D000
ENDCHAR
STARTCHAR Euro
ENCODING 8364
SWIDTH 590 0
DWIDTH 6 0
BBX 7 7 -1 0
BITMAP
0150
0B68
1E58
2E80
6F94
0BA4
0190
ENDCHAR
STARTCHAR trademark
ENCODING 8482
SWIDTH 624 0
DWIDTH 6 0
BBX 6 4 0 3
BITMAP
9000
9550
85A0
6550
ENDCHAR
STARTCHAR minus
ENCODING 8722
SWIDTH 549 0
DWIDTH 6 0
BBX 6 3 0 2
BITMAP
5500
FFD0
5540
ENDCHAR
STARTCHAR fi
ENCODING 64257
SWIDTH 757 0
DWIDTH 8 0
BBX 9 14 -1 -4
BITMAP
00A400
035D00
070E00
0B0E00
0B0000
2FFF00
074A00
074A00
034A00
039F40
028000
528000
734000
2E0000
ENDCHAR
STARTCHAR fl
ENCODING 64258
SWIDTH 776 0
DWIDTH 8 0
BBX 9 14 -1 -4
BITMAP
00A400
035D00
070A00
0B0B00
0B0B00
2FEB00
074B00
074B00
034A00
038A00
029A40
528000
734000
2E0000
ENDCHAR
STARTCHAR .notdef
ENCODING -1
SWIDTH 320 0
DWIDTH 3 0
BBX 1 1 0 0
BITMAP
00
ENDCHAR
ENDFONT
